<?xml version="1.0" encoding="UTF-8"?>
<svg width="100%" height="100%" viewBox="0 0 11 11" version="1.1" xmlns="http://www.w3.org/2000/svg" xmlns:xlink="http://www.w3.org/1999/xlink">
  <title>Ummati</title>
  <desc>Ummati logo</desc>
  <g x="5%" y="5%" width="90%" height="90%">
    <g class="ummati" fill="#04a5f0">
      <polygon points="9,1 9,1 1,1 1,2 9,2 9,5 1,5 1,10 2,10 2,8 5,8 5,9 3,9 3,10 8,10 8,7 7,7 7,10 6,10 6,6 9,6 9,11 0,11 0,4 8,4 8,3 0,3 0,0 9,0"/>
      <rect x="10" y="0" width="1" height="11"/>
    </g>
    <g class="diacritics" fill="#f35225">
      <rect x="2" y="6" width="1" height="1"/>
      <rect x="4" y="6" width="1" height="1"/>
    </g>
  </g>
</svg>
